# xmcd
#
# Track frame offsets:
#	150
#	15082
#	33240
#	48677
#	64120
#	75767
#	93250
#	109732
#	129155
#	141275
#	151442
#	166745
#	181432
#	191322
#
# Disc length: 2705
#
# Revision: 2
# Processed by: cddbd v1.5.1PL0 Copyright (c) Steve Scherf et al.
# Submitted via: audiograbber 1.83.01
# Normalized: r1:DSETVAR1
#
DISCID=9f0a8f0e
DTITLE=Various Artist - White Man Blues
DYEAR=1995
DGENRE=Blues
TTITLE0=Spatz - Dock Of The Bay
TTITLE1=Willie "Sideways" Sumlin - Hungry Man Blues
TTITLE2=Roy Head - It´s Too Late
TTITLE3=Pieree Blanchard - Black Cat Bone
TTITLE4=Joey Long - I Need Someone
TTITLE5=Steve Owns - Mercury Blues
TTITLE6=Terrapin Jackson - Milk Cow Blues
TTITLE7=Chris Holzhaus - Red Neck Blues
TTITLE8=Johnny and Edgar Winter - Please Come Home For Christmas
TTITLE9=Ed Maly - Rough Girl
TTITLE10=Bruce Brooks - Gonna Get My Baby
TTITLE11=Johnny Winter - Low Down Gal Of Mine
TTITLE12=Roy Head - Nobody But Me Tells My Eagle When To Fly
TTITLE13=Joey Long - Something To Ease My Pain
EXTD=
EXTT0=
EXTT1=
EXTT2=
EXTT3=
EXTT4=
EXTT5=
EXTT6=
EXTT7=
EXTT8=
EXTT9=
EXTT10=
EXTT11=
EXTT12=
EXTT13=
PLAYORDER=
